<mxfile host="app.diagrams.net" modified="2024-01-08T01:52:54.279Z" agent="Mozilla/5.0 (Macintosh; Intel Mac OS X 10_15_7) AppleWebKit/537.36 (KHTML, like Gecko) Chrome/120.0.0.0 Safari/537.36" etag="Rm-qSUR6vbMrNsV0MTkJ" version="22.1.17" type="github">
  <diagram id="C5RBs43oDa-KdzZeNtuy" name="Page-1">
    <mxGraphModel dx="896" dy="476" grid="1" gridSize="10" guides="1" tooltips="1" connect="1" arrows="1" fold="1" page="1" pageScale="1" pageWidth="827" pageHeight="1169" math="0" shadow="0">
      <root>
        <mxCell id="WIyWlLk6GJQsqaUBKTNV-0" />
        <mxCell id="WIyWlLk6GJQsqaUBKTNV-1" parent="WIyWlLk6GJQsqaUBKTNV-0" />
        <mxCell id="Zj91Q1p2i2X-R70VUPiY-4" style="edgeStyle=orthogonalEdgeStyle;rounded=0;orthogonalLoop=1;jettySize=auto;html=1;exitX=1;exitY=0.5;exitDx=0;exitDy=0;entryX=0;entryY=0.5;entryDx=0;entryDy=0;entryPerimeter=0;" edge="1" parent="WIyWlLk6GJQsqaUBKTNV-1" source="WIyWlLk6GJQsqaUBKTNV-3" target="Zj91Q1p2i2X-R70VUPiY-8">
          <mxGeometry relative="1" as="geometry">
            <mxPoint x="370" y="100" as="targetPoint" />
          </mxGeometry>
        </mxCell>
        <mxCell id="Zj91Q1p2i2X-R70VUPiY-31" style="edgeStyle=orthogonalEdgeStyle;rounded=0;orthogonalLoop=1;jettySize=auto;html=1;" edge="1" parent="WIyWlLk6GJQsqaUBKTNV-1" source="WIyWlLk6GJQsqaUBKTNV-3">
          <mxGeometry relative="1" as="geometry">
            <mxPoint x="217" y="170" as="targetPoint" />
          </mxGeometry>
        </mxCell>
        <mxCell id="WIyWlLk6GJQsqaUBKTNV-3" value="Login" style="rounded=1;whiteSpace=wrap;html=1;fontSize=12;glass=0;strokeWidth=1;shadow=0;" parent="WIyWlLk6GJQsqaUBKTNV-1" vertex="1">
          <mxGeometry x="162" y="80" width="110" height="40" as="geometry" />
        </mxCell>
        <mxCell id="Zj91Q1p2i2X-R70VUPiY-5" value="Yes" style="text;html=1;align=center;verticalAlign=middle;resizable=0;points=[];autosize=1;strokeColor=none;fillColor=none;" vertex="1" parent="WIyWlLk6GJQsqaUBKTNV-1">
          <mxGeometry x="228" y="126" width="40" height="30" as="geometry" />
        </mxCell>
        <mxCell id="Zj91Q1p2i2X-R70VUPiY-6" value="No" style="text;html=1;align=center;verticalAlign=middle;resizable=0;points=[];autosize=1;strokeColor=none;fillColor=none;" vertex="1" parent="WIyWlLk6GJQsqaUBKTNV-1">
          <mxGeometry x="300" y="78" width="40" height="30" as="geometry" />
        </mxCell>
        <mxCell id="Zj91Q1p2i2X-R70VUPiY-10" value="" style="rounded=0;orthogonalLoop=1;jettySize=auto;html=1;entryX=0;entryY=0.5;entryDx=0;entryDy=0;entryPerimeter=0;exitX=0.5;exitY=0;exitDx=0;exitDy=0;exitPerimeter=0;" edge="1" parent="WIyWlLk6GJQsqaUBKTNV-1" source="Zj91Q1p2i2X-R70VUPiY-7" target="Zj91Q1p2i2X-R70VUPiY-12">
          <mxGeometry relative="1" as="geometry">
            <mxPoint x="363" y="225.5" as="targetPoint" />
          </mxGeometry>
        </mxCell>
        <mxCell id="Zj91Q1p2i2X-R70VUPiY-7" value="Main" style="strokeWidth=2;html=1;shape=mxgraph.flowchart.decision;whiteSpace=wrap;strokeColor=default;direction=south;" vertex="1" parent="WIyWlLk6GJQsqaUBKTNV-1">
          <mxGeometry x="162.5" y="174.5" width="109" height="102" as="geometry" />
        </mxCell>
        <mxCell id="Zj91Q1p2i2X-R70VUPiY-8" value="Signup" style="strokeWidth=2;html=1;shape=mxgraph.flowchart.display;whiteSpace=wrap;" vertex="1" parent="WIyWlLk6GJQsqaUBKTNV-1">
          <mxGeometry x="375" y="70" width="100" height="60" as="geometry" />
        </mxCell>
        <mxCell id="Zj91Q1p2i2X-R70VUPiY-12" value="Resume" style="strokeWidth=2;html=1;shape=mxgraph.flowchart.display;whiteSpace=wrap;" vertex="1" parent="WIyWlLk6GJQsqaUBKTNV-1">
          <mxGeometry x="375" y="195.5" width="100" height="60" as="geometry" />
        </mxCell>
        <mxCell id="Zj91Q1p2i2X-R70VUPiY-33" value="" style="edgeStyle=none;orthogonalLoop=1;jettySize=auto;html=1;rounded=0;exitX=0.5;exitY=0;exitDx=0;exitDy=0;exitPerimeter=0;entryX=-0.035;entryY=0.5;entryDx=0;entryDy=0;entryPerimeter=0;" edge="1" parent="WIyWlLk6GJQsqaUBKTNV-1" source="Zj91Q1p2i2X-R70VUPiY-7" target="Zj91Q1p2i2X-R70VUPiY-36">
          <mxGeometry width="80" relative="1" as="geometry">
            <mxPoint x="272" y="290" as="sourcePoint" />
            <mxPoint x="352" y="290" as="targetPoint" />
            <Array as="points" />
          </mxGeometry>
        </mxCell>
        <mxCell id="Zj91Q1p2i2X-R70VUPiY-35" value="" style="edgeStyle=none;orthogonalLoop=1;jettySize=auto;html=1;rounded=0;exitX=0.5;exitY=0;exitDx=0;exitDy=0;exitPerimeter=0;entryX=-0.035;entryY=0.473;entryDx=0;entryDy=0;entryPerimeter=0;" edge="1" parent="WIyWlLk6GJQsqaUBKTNV-1" source="Zj91Q1p2i2X-R70VUPiY-7" target="Zj91Q1p2i2X-R70VUPiY-37">
          <mxGeometry width="80" relative="1" as="geometry">
            <mxPoint x="340" y="390" as="sourcePoint" />
            <mxPoint x="300" y="340" as="targetPoint" />
            <Array as="points" />
          </mxGeometry>
        </mxCell>
        <mxCell id="Zj91Q1p2i2X-R70VUPiY-38" style="edgeStyle=orthogonalEdgeStyle;rounded=0;orthogonalLoop=1;jettySize=auto;html=1;" edge="1" parent="WIyWlLk6GJQsqaUBKTNV-1" source="Zj91Q1p2i2X-R70VUPiY-36">
          <mxGeometry relative="1" as="geometry">
            <mxPoint x="569.9999999999998" y="306.5" as="targetPoint" />
          </mxGeometry>
        </mxCell>
        <mxCell id="Zj91Q1p2i2X-R70VUPiY-36" value="blog" style="strokeWidth=2;html=1;shape=mxgraph.flowchart.display;whiteSpace=wrap;" vertex="1" parent="WIyWlLk6GJQsqaUBKTNV-1">
          <mxGeometry x="380" y="276.5" width="100" height="60" as="geometry" />
        </mxCell>
        <mxCell id="Zj91Q1p2i2X-R70VUPiY-37" value="manage" style="strokeWidth=2;html=1;shape=mxgraph.flowchart.display;whiteSpace=wrap;" vertex="1" parent="WIyWlLk6GJQsqaUBKTNV-1">
          <mxGeometry x="380" y="360" width="100" height="60" as="geometry" />
        </mxCell>
        <mxCell id="Zj91Q1p2i2X-R70VUPiY-39" value="List" style="strokeWidth=2;html=1;shape=mxgraph.flowchart.display;whiteSpace=wrap;" vertex="1" parent="WIyWlLk6GJQsqaUBKTNV-1">
          <mxGeometry x="570" y="276.5" width="100" height="60" as="geometry" />
        </mxCell>
      </root>
    </mxGraphModel>
  </diagram>
</mxfile>
